<svg width="511" height="801" viewBox="0 0 511 801" fill="none" xmlns="http://www.w3.org/2000/svg">
<rect y="515.925" width="65.0977" height="48.2093" transform="rotate(-37.1767 0 515.925)" fill="#D9D9D9" fill-opacity="0.8"/>
<rect x="170" y="602.105" width="79.754" height="79.754" transform="rotate(-23.4009 170 602.105)" fill="#D9D9D9" fill-opacity="0.8"/>
<rect x="290" y="681.675" width="48.4988" height="52.334" transform="rotate(-23.4009 290 681.675)" fill="#D9D9D9" fill-opacity="0.8"/>
<rect x="123.971" y="750.492" width="142.238" height="54.4567" transform="rotate(-23.4009 123.971 750.492)" fill="#D9D9D9" fill-opacity="0.8"/>
<path d="M131 372.5L94 390L104.5 407L88.3398 415.34L159 512.5L198 491.5L170.271 373.683L138.979 389.593L131 372.5Z" fill="#D9D9D9" fill-opacity="0.8"/>
<path d="M63 262L17.5 331L47.5 369.5L74.5 357L85.5 375.5L122.5 358L112 340L156.961 319.469L143 295L63 262Z" fill="#D9D9D9" fill-opacity="0.8"/>
<rect x="435" width="76" height="45" fill="#D9D9D9" fill-opacity="0.8"/>
</svg>
