<svg width="356" height="539" viewBox="0 0 356 539" fill="none" xmlns="http://www.w3.org/2000/svg">
<rect y="253.925" width="65.0977" height="48.2093" transform="rotate(-37.1767 0 253.925)" fill="#D9D9D9" fill-opacity="0.8"/>
<rect x="170" y="340.105" width="79.754" height="79.754" transform="rotate(-23.4009 170 340.105)" fill="#D9D9D9" fill-opacity="0.8"/>
<rect x="290" y="419.675" width="48.4988" height="52.334" transform="rotate(-23.4009 290 419.675)" fill="#D9D9D9" fill-opacity="0.8"/>
<rect x="123.971" y="488.492" width="142.238" height="54.4567" transform="rotate(-23.4009 123.971 488.492)" fill="#D9D9D9" fill-opacity="0.8"/>
<path d="M131 110.5L94 128L104.5 145L88.3398 153.34L159 250.5L198 229.5L170.271 111.683L138.979 127.593L131 110.5Z" fill="#D9D9D9" fill-opacity="0.8"/>
<path d="M63 0L17.5 69L47.5 107.5L74.5 95L85.5 113.5L122.5 96L112 78L156.961 57.4695L143 33L63 0Z" fill="#D9D9D9" fill-opacity="0.8"/>
</svg>
